<?xml version="1.0" encoding="utf-8"?>
<!-- Generator: Adobe Illustrator 16.0.0, SVG Export Plug-In . SVG Version: 6.00 Build 0)  -->
<!DOCTYPE svg PUBLIC "-//W3C//DTD SVG 1.1//EN" "http://www.w3.org/Graphics/SVG/1.1/DTD/svg11.dtd">
<svg version="1.1"
	 id="svg3061" xmlns:cc="http://creativecommons.org/ns#" xmlns:svg="http://www.w3.org/2000/svg" xmlns:rdf="http://www.w3.org/1999/02/22-rdf-syntax-ns#" xmlns:sodipodi="http://sodipodi.sourceforge.net/DTD/sodipodi-0.dtd" xmlns:dc="http://purl.org/dc/elements/1.1/" xmlns:inkscape="http://www.inkscape.org/namespaces/inkscape" inkscape:version="0.48.2 r9819" sodipodi:docname="Brickipedia.png"
	 xmlns="http://www.w3.org/2000/svg" xmlns:xlink="http://www.w3.org/1999/xlink" x="0px" y="0px" width="572.095px"
	 height="118.9px" viewBox="4.4 0 572.095 118.9" enable-background="new 4.4 0 572.095 118.9" xml:space="preserve" fill="#fff">
<g>
	<path d="M35.802,101.251c-8.201,0-13.501-2.301-19.201-8.401v7.101H4.4V26.046h13.301v23.601c5.1-5.1,10-7.1,17.201-7.1
		c15.901,0,27.901,12.601,27.901,29.302S51.403,101.251,35.802,101.251z M33.002,54.747c-9.3,0-16.101,7.1-16.101,17.101
		c0,10.101,6.801,17.201,16.401,17.201c9.5,0,16.101-7,16.101-17.102C49.403,62.048,42.502,54.747,33.002,54.747z"/>
	<path d="M83.7,69.148V99.95H70.399V44.547H82.6v5.4c3.5-5.101,6.3-6.701,12-6.701h1v12.801C87.601,56.247,83.7,60.548,83.7,69.148z
		"/>
	<path d="M102.398,99.95V44.547h13.301V99.95H102.398z M102.499,36.546V23.245h13.301v13.301H102.499z"/>
	<path d="M153.599,101.251c-16.401,0-29.602-12.901-29.602-29.002c0-16.302,12.801-29.002,29.202-29.002
		c12.601,0,23.601,7.101,27.901,19.801H166.1c-2.7-5.1-6.9-7.601-12.9-7.601c-9.201,0-15.801,7.001-15.801,16.701
		s6.9,16.901,16.101,16.901c5.5,0,9.301-2.2,12.601-7.301h15.001C176.5,94.149,166.5,101.251,153.599,101.251z"/>
	<path d="M222.6,99.95l-18.901-25.901V99.95h-13.301V26.046h13.301v44.603l17.701-26.102H237.3l-19.801,27.102L240.5,99.95H222.6z"
		/>
	<path d="M248.396,99.95V44.547h13.301V99.95H248.396z M248.496,36.546V23.245h13.301v13.301H248.496z"/>
	<path d="M342.199,99.95V69.548c0-11.1-4.2-14.101-10.4-14.101c-7.401,0-11.201,4-11.201,17.201V99.95h-13.301V69.548
		c0-10.9-3.8-14.101-10.8-14.101c-7.701,0-10.801,4.101-10.801,17.201V99.95h-13.301V44.547h12.201v5.2c3.9-4.7,7.9-6.5,14.401-6.5
		c7.6,0,12.5,2.6,16.301,8.601c4.5-6,10-8.601,17.801-8.601c14.602,0,22.401,8.101,22.401,24.702V99.95H342.199z"/>
	<path d="M421.297,78.149h-42.903c1.601,6.699,7.401,10.9,15.302,10.9c5.5,0,8.8-1.5,12.2-5.5h14.502
		c-3.701,11.4-15.201,17.701-26.402,17.701c-16.9,0-30.002-12.602-30.002-28.803c0-16.301,12.9-29.202,29.202-29.202
		c16.501,0,28.602,12.601,28.602,29.801C421.797,75.049,421.696,76.249,421.297,78.149z M393.396,55.447
		c-7.9,0-13.301,3.9-15.401,11.001h30.702C406.996,59.347,401.596,55.447,393.396,55.447z"/>
	<path d="M474.096,99.95v-7.2c-5.3,6-10.8,8.501-18.301,8.501c-15.701,0-27.802-12.701-27.802-29.103
		c0-16.601,12.201-29.602,27.702-29.602c7,0,13.4,2.6,17.301,6.9V26.046h13.301V99.95H474.096z M457.595,54.747
		c-9.101,0-16.2,7.4-16.2,16.8c0,9.801,7.2,17.502,16.501,17.502c9,0,16.101-7.501,16.101-17.102
		C473.996,62.248,466.896,54.747,457.595,54.747z"/>
	<path d="M496.393,99.95V44.547h13.301V99.95H496.393z M496.492,36.546V23.245h13.301v13.301H496.492z"/>
	<path d="M564.294,99.95v-7.2c-5.3,6-10.601,8.501-18.4,8.501c-16.201,0-27.902-12.102-27.902-28.803
		c0-16.901,11.801-29.202,28.202-29.202c8,0,13.501,2.6,18.101,8.701v-7.4h12.201V99.95H564.294z M547.593,55.447
		c-9.5,0-16.2,7.2-16.2,17.302c0,9.7,6.7,16.301,16.4,16.301c10.101,0,16.102-7.201,16.102-16.401
		C563.895,62.548,557.094,55.447,547.593,55.447z"/>
</g>
<sodipodi:namedview  id="namedview3063" inkscape:cy="57.412688" borderopacity="1" fit-margin-top="0" inkscape:cx="272.51054" guidetolerance="10" showgrid="false" bordercolor="#666666" inkscape:zoom="1.0902394" fit-margin-left="0" gridtolerance="10" pagecolor="#ffffff" objecttolerance="10" inkscape:current-layer="svg3061" fit-margin-bottom="0" inkscape:window-x="0" inkscape:window-y="24" inkscape:object-nodes="true" inkscape:pageshadow="2" inkscape:window-width="1360" inkscape:window-height="744" inkscape:snap-bbox="true" inkscape:snap-grids="true" inkscape:snap-global="true" inkscape:snap-nodes="false" fit-margin-right="0" inkscape:pageopacity="0" inkscape:window-maximized="1">
	
		<inkscape:grid  type="xygrid" enabled="true" dotted="true" visible="true" empspacing="5" id="grid3849" snapvisiblegridlinesonly="true">
		</inkscape:grid>
</sodipodi:namedview>
<g id="g3934" transform="translate(-3.348302,7.020164)">
	<path id="rect3851" inkscape:connector-curvature="0" fill="#FF0000" d="M230.789,13.98v5h-5v20h40v-20h-5v-5h-10v5h-10v-5H230.789
		L230.789,13.98z"/>
	<path id="path3909" inkscape:connector-curvature="0" fill="#0000FF" d="M251.789-6.02v5h-5v20h40v-20h-5v-5h-10v5h-10v-5H251.789
		L251.789-6.02z"/>
</g>
<g id="g3930" transform="translate(-3.348302,7.020164)">
	<path id="path3913" inkscape:connector-curvature="0" fill="#FF0000" d="M112.395,68.38v5h-5v20h40v-20h-5v-5h-10v5h-10v-5H112.395
		z"/>
	<path id="path3915" inkscape:connector-curvature="0" fill="#FFB600" d="M75.891,75.565l4.192,2.727l-2.725,4.19L94.13,93.38
		l21.795-33.54l-16.77-10.898l-2.725,4.192l-4.192-2.725l-5.449,8.386l4.193,2.725l-5.449,8.387L81.34,67.18L75.891,75.565z"/>
</g>
<path id="path3911" inkscape:connector-curvature="0" fill="#00AA00" d="M350.702,20.86l-2.629,4.253l-4.254-2.629l-10.517,17.012
	l34.024,21.032l10.517-17.013l-4.254-2.631l2.629-4.253l-8.506-5.258l-2.629,4.253l-8.506-5.258l2.629-4.253L350.702,20.86z"/>
</svg>
